<svg width="24" height="24" viewBox="0 0 24 24" fill="none" xmlns="http://www.w3.org/2000/svg">
<g clip-path="url(#clip0_53918_524)">
<path d="M2.99989 13H4.99989V11H2.99989V13ZM6.99989 21H8.99989V19H6.99989V21ZM12.9999 3H10.9999V5H12.9999V3ZM18.9999 3V5H20.9999C20.9999 3.9 20.0999 3 18.9999 3ZM4.99989 21V19H2.99989C2.99989 20.1 3.89989 21 4.99989 21ZM2.99989 17H4.99989V15H2.99989V17ZM10.9999 21H12.9999V19H10.9999V21ZM18.9999 13H20.9999V11H18.9999V13ZM18.9999 9H20.9999V7H18.9999V9ZM14.9999 5H16.9999V3H14.9999V5ZM7.82989 5L6.99989 4.17V3H8.99989V5H7.82989ZM19.8299 17L18.9999 16.17V15H20.9999V17H19.8299ZM21.1899 21.19L2.80989 2.81L1.38989 4.22L4.16989 7H2.99989V9H4.99989V7.83L6.99989 9.83V17H14.1699L16.1699 19H14.9999V21H16.9999V19.83L19.7799 22.61L21.1899 21.19ZM8.99989 15V11.83L12.1699 15H8.99989ZM14.9999 12.17V9H11.8299L9.82989 7H16.9999V14.17L14.9999 12.17Z" fill="white"/>
</g>
<defs>
<clipPath id="clip0_53918_524">
<rect width="24" height="24" fill="white"/>
</clipPath>
</defs>
</svg>
