<svg width="24" height="24" viewBox="0 0 24 24" fill="none" xmlns="http://www.w3.org/2000/svg">
<g clip-path="url(#clip0_53919_590)">
<path d="M19.4301 12.98C19.4701 12.66 19.5001 12.34 19.5001 12C19.5001 11.66 19.4701 11.34 19.4301 11.02L21.5401 9.37C21.7301 9.22 21.7801 8.95 21.6601 8.73L19.6601 5.27C19.5701 5.11 19.4001 5.02 19.2201 5.02C19.1601 5.02 19.1001 5.03 19.0501 5.05L16.5601 6.05C16.0401 5.65 15.4801 5.32 14.8701 5.07L14.4901 2.42C14.4601 2.18 14.2501 2 14.0001 2H10.0001C9.75008 2 9.54008 2.18 9.51008 2.42L9.13008 5.07C8.52008 5.32 7.96008 5.66 7.44008 6.05L4.95008 5.05C4.89008 5.03 4.83008 5.02 4.77008 5.02C4.60008 5.02 4.43008 5.11 4.34008 5.27L2.34008 8.73C2.21008 8.95 2.27008 9.22 2.46008 9.37L4.57008 11.02C4.53008 11.34 4.50008 11.67 4.50008 12C4.50008 12.33 4.53008 12.66 4.57008 12.98L2.46008 14.63C2.27008 14.78 2.22008 15.05 2.34008 15.27L4.34008 18.73C4.43008 18.89 4.60008 18.98 4.78008 18.98C4.84008 18.98 4.90008 18.97 4.95008 18.95L7.44008 17.95C7.96008 18.35 8.52008 18.68 9.13008 18.93L9.51008 21.58C9.54008 21.82 9.75008 22 10.0001 22H14.0001C14.2501 22 14.4601 21.82 14.4901 21.58L14.8701 18.93C15.4801 18.68 16.0401 18.34 16.5601 17.95L19.0501 18.95C19.1101 18.97 19.1701 18.98 19.2301 18.98C19.4001 18.98 19.5701 18.89 19.6601 18.73L21.6601 15.27C21.7801 15.05 21.7301 14.78 21.5401 14.63L19.4301 12.98ZM17.4501 11.27C17.4901 11.58 17.5001 11.79 17.5001 12C17.5001 12.21 17.4801 12.43 17.4501 12.73L17.3101 13.86L18.2001 14.56L19.2801 15.4L18.5801 16.61L17.3101 16.1L16.2701 15.68L15.3701 16.36C14.9401 16.68 14.5301 16.92 14.1201 17.09L13.0601 17.52L12.9001 18.65L12.7001 20H11.3001L11.1101 18.65L10.9501 17.52L9.89008 17.09C9.46008 16.91 9.06008 16.68 8.66008 16.38L7.75008 15.68L6.69008 16.11L5.42008 16.62L4.72008 15.41L5.80008 14.57L6.69008 13.87L6.55008 12.74C6.52008 12.43 6.50008 12.2 6.50008 12C6.50008 11.8 6.52008 11.57 6.55008 11.27L6.69008 10.14L5.80008 9.44L4.72008 8.6L5.42008 7.39L6.69008 7.9L7.73008 8.32L8.63008 7.64C9.06008 7.32 9.47008 7.08 9.88008 6.91L10.9401 6.48L11.1001 5.35L11.3001 4H12.6901L12.8801 5.35L13.0401 6.48L14.1001 6.91C14.5301 7.09 14.9301 7.32 15.3301 7.62L16.2401 8.32L17.3001 7.89L18.5701 7.38L19.2701 8.59L18.2001 9.44L17.3101 10.14L17.4501 11.27ZM12.0001 8C9.79008 8 8.00008 9.79 8.00008 12C8.00008 14.21 9.79008 16 12.0001 16C14.2101 16 16.0001 14.21 16.0001 12C16.0001 9.79 14.2101 8 12.0001 8ZM12.0001 14C10.9001 14 10.0001 13.1 10.0001 12C10.0001 10.9 10.9001 10 12.0001 10C13.1001 10 14.0001 10.9 14.0001 12C14.0001 13.1 13.1001 14 12.0001 14Z" fill="white"/>
</g>
<defs>
<clipPath id="clip0_53919_590">
<rect width="24" height="24" fill="white"/>
</clipPath>
</defs>
</svg>
